{"title":"Churiyan (Batchmate) - Jassi Gill - New Punjabi Album - H.264 -","uid":6927645,"size":30358320,"categoryP":"video","categoryS":"music_videos","magnet":"?xt=urn:btih:df6e6ddfe158aeee72b754a20111d74e05d1a6ab&amp;dn=Churiyan+%28Batchmate%29+-+Jassi+Gill+-+New+Punjabi+Album+-+H.264+-+&amp;tr=udp%3A%2F%2Ftracker.openbittorrent.com%3A80&amp;tr=udp%3A%2F%2Fopen.demonii.com%3A1337&amp;tr=udp%3A%2F%2Ftracker.coppersurfer.tk%3A6969&amp;tr=udp%3A%2F%2Fexodus.desync.com%3A6969","seeders":1,"leechers":0,"uploader":"AbhiHKRG","files":6,"time":1325565933,"description":"[img]http://i.minus.com/iEaLOobDWXNI5.jpg[/img]\n\n\nInfo ::\nFormat                           : AVI\nFormat/Info                      : Audio Video Interleave\nFile size                        : 29.0 MiB\nDuration                         : 3mn 23s\nOverall bit rate                 : 1 191 Kbps\n\n\nVideo Info ::\nID                               : 0\nFormat                           : AVC\nFormat/Info                      : Advanced Video Codec\nFormat profile                   : &lt;a class=&quot;__cf_email__&quot; href=&quot;/cdn-cgi/l/email-protection&quot; data-cfemail=&quot;4800212f2008047d6679&quot;&gt;[email&amp;#160;protected]&lt;/a&gt;&lt;script cf-hash='f9e31' type=&quot;text/javascript&quot;&gt;\n/* &lt;![CDATA[ */!function(){try{var t=&quot;currentScript&quot;in document?document.currentScript:function(){for(var t=document.getElementsByTagName(&quot;script&quot;),e=t.length;e--;)if(t[e].getAttribute(&quot;cf-hash&quot;))return t[e]}();if(t&amp;&amp;t.previousSibling){var e,r,n,i,c=t.previousSibling,a=c.getAttribute(&quot;data-cfemail&quot;);if(a){for(e=&quot;&quot;,r=parseInt(a.substr(0,2),16),n=2;a.length-n;n+=2)i=parseInt(a.substr(n,2),16)^r,e+=String.fromCharCode(i);e=document.createTextNode(e),c.parentNode.replaceChild(e,c)}}}catch(u){}}();/* ]]&gt; */&lt;/script&gt;\nFormat settings, CABAC           : Yes\nFormat settings, ReFrames        : 2 frames\nCodec ID                         : H264\nDuration                         : 10s 0ms\nBit rate                         : 987 Kbps\nWidth                            : 720 pixels\nHeight                           : 312 pixels\nDisplay aspect ratio             : 2.35:1\nFrame rate                       : 30.000 fps\nColor space                      : YUV\nChroma subsampling               : 4:2:0\nBit depth                        : 8 bits\nScan type                        : Progressive\nBits/(Pixel*Frame)               : 0.147\nStream size                      : 24.0 MiB (83%)\n\n\nAudio Info ::\nID                               : 1\nFormat                           : MPEG Audio\nFormat version                   : Version 1\nFormat profile                   : Layer 3\nCodec ID                         : 55\nCodec ID/Hint                    : MP3\nDuration                         : 3mn 23s\nBit rate mode                    : Constant\nBit rate                         : 192 Kbps\nChannel(s)                       : 2 channels\nSampling rate                    : 44.1 KHz\nCompression mode                 : Lossy\nStream size                      : 4.67 MiB (16%)","torrent":{"xt":"urn:btih:df6e6ddfe158aeee72b754a20111d74e05d1a6ab","amp;dn":"Churiyan+%28Batchmate%29+-+Jassi+Gill+-+New+Punjabi+Album+-+H.264+-+","amp;tr":["udp%3A%2F%2Ftracker.openbittorrent.com%3A80","udp%3A%2F%2Fopen.demonii.com%3A1337","udp%3A%2F%2Ftracker.coppersurfer.tk%3A6969","udp%3A%2F%2Fexodus.desync.com%3A6969"],"infoHash":"df6e6ddfe158aeee72b754a20111d74e05d1a6ab","infoHashBuffer":{"type":"Buffer","data":[223,110,109,223,225,88,174,238,114,183,84,162,1,17,215,78,5,209,166,171]},"announce":[],"urlList":[]}}